<svg xmlns="http://www.w3.org/2000/svg" viewBox="0 0 256 256">
  <defs>
    <linearGradient id="gradOrange" x1="0%" y1="0%" x2="0%" y2="100%">
      <stop offset="0%" stop-color="#F97316"/>
      <stop offset="100%" stop-color="#EA580C"/>
    </linearGradient>
    <linearGradient id="gradGreen" x1="0%" y1="0%" x2="0%" y2="100%">
      <stop offset="0%" stop-color="#10B981"/>
      <stop offset="100%" stop-color="#059669"/>
    </linearGradient>
  </defs>
  
  <rect width="256" height="256" rx="64" fill="#FDFBF0" />
  <rect width="256" height="256" rx="64" fill="none" stroke="#94A3B8" stroke-opacity="0.2" stroke-width="4" />
  
  <!-- Bar 1 (Short) -->
  <rect x="58" y="136" width="32" height="76" rx="8" fill="url(#gradOrange)" />
  
  <!-- Bar 2 (Medium) -->
  <rect x="112" y="96" width="32" height="116" rx="8" fill="url(#gradOrange)" />
  
  <!-- Bar 3 (Tall/Stem) -->
  <rect x="166" y="126" width="32" height="86" rx="8" fill="url(#gradGreen)" />
  
  <!-- Leaf element on top of green bar -->
  <path d="M182 36 C210 36 226 56 226 82 C226 108 182 136 182 136 C182 136 138 108 138 82 C138 56 154 36 182 36 Z" fill="url(#gradGreen)" />
  
  <!-- Leaf inner vein -->
  <path d="M182 46 C182 46 182 120 182 126" stroke="#FDFBF0" stroke-width="4" stroke-linecap="round" fill="none" opacity="0.6"/>
</svg>